
<svg width="149px" height="255px" viewBox="0 0 149 255" version="1.1" xmlns="http://www.w3.org/2000/svg" xmlns:xlink="http://www.w3.org/1999/xlink">
    <defs>
        <linearGradient x1="50%" y1="0%" x2="50%" y2="100%" id="linearGradient-1">
            <stop stop-color="#000000" stop-opacity="0" offset="0%"></stop>
            <stop stop-color="#000000" stop-opacity="0.5" offset="100%"></stop>
        </linearGradient>
        <linearGradient x1="50%" y1="0%" x2="50%" y2="76.4938767%" id="linearGradient-2">
            <stop stop-color="#FFFFFF" stop-opacity="0.25" offset="0%"></stop>
            <stop stop-color="#FFFFFF" stop-opacity="0" offset="100%"></stop>
        </linearGradient>
        <linearGradient x1="63.4301933%" y1="11.7542614%" x2="63.4301933%" y2="77.3171165%" id="linearGradient-3">
            <stop stop-color="#FFFFFF" stop-opacity="0" offset="0%"></stop>
            <stop stop-color="#FFFFFF" stop-opacity="0.35" offset="100%"></stop>
        </linearGradient>
    </defs>
    <g id="Page-1" stroke="none" stroke-width="1" fill="none" fill-rule="evenodd">
        <g id="WP-App-Server" transform="translate(5.000000, 3.000000)">
            <g id="Group">
                <polygon id="bottom" fill-opacity="0.75" fill="#03E3FF" points="-1.35030875e-14 201 46 245 139 245 93 201"></polygon>
                <polygon id="back" fill-opacity="0.75" fill="#03E3FF" points="4.25909308e-14 0 93 0 93 201 4.25909308e-14 201"></polygon>
                <polygon id="left" fill-opacity="0.75" fill="#03E3FF" points="-3.83026943e-15 201 46 245 46 44 -3.83026943e-15 0"></polygon>
                <polygon id="right" fill-opacity="0.75" fill="#03E3FF" points="93 0 93 201 139 245 139 44"></polygon>
                <polygon id="top" fill-opacity="0.75" fill="#03E3FF" points="-3.49633517e-15 0 46 44 139 44 93 0"></polygon>
                <polygon id="front" fill-opacity="0.75" fill="#03E3FF" points="46 44 139 44 139 245 46 245"></polygon>
                <polygon id="Path" stroke="#000000" stroke-width="0.5" fill="url(#linearGradient-1)" points="139 245 46 245 0 201 0 0 93 0 139 44"></polygon>
                <polygon id="front" fill="url(#linearGradient-2)" points="46 44 139 44 139 245 46 245"></polygon>
                <polygon id="top" fill="url(#linearGradient-3)" points="-3.49633517e-15 0 46 44 139 44 93 0"></polygon>
            </g>
        </g>
    </g>
</svg>