
<svg width="631px" height="400px" viewBox="0 0 631 400" version="1.1" xmlns="http://www.w3.org/2000/svg" xmlns:xlink="http://www.w3.org/1999/xlink">
    <defs>
        <linearGradient x1="50%" y1="0%" x2="50%" y2="100%" id="linearGradient-1">
            <stop stop-color="#000000" stop-opacity="0" offset="0%"></stop>
            <stop stop-color="#000000" stop-opacity="0.5" offset="100%"></stop>
        </linearGradient>
        <linearGradient x1="50%" y1="0%" x2="50%" y2="76.4938767%" id="linearGradient-2">
            <stop stop-color="#FFFFFF" stop-opacity="0.25" offset="0%"></stop>
            <stop stop-color="#FFFFFF" stop-opacity="0" offset="100%"></stop>
        </linearGradient>
        <linearGradient x1="63.4301933%" y1="11.7542614%" x2="63.4301933%" y2="77.3171165%" id="linearGradient-3">
            <stop stop-color="#FFFFFF" stop-opacity="0" offset="0%"></stop>
            <stop stop-color="#FFFFFF" stop-opacity="0.35" offset="100%"></stop>
        </linearGradient>
        <radialGradient cx="50%" cy="50%" fx="50%" fy="50%" r="50.7311%" gradientTransform="translate(0.500000,0.500000),rotate(170.261057),scale(1.000000,0.913506),translate(-0.500000,-0.500000)" id="radialGradient-4">
            <stop stop-color="#000000" stop-opacity="0.247268357" offset="0%"></stop>
            <stop stop-color="#000000" stop-opacity="0" offset="100%"></stop>
        </radialGradient>
        <radialGradient cx="69.4979409%" cy="29.3241279%" fx="69.4979409%" fy="29.3241279%" r="50%" id="radialGradient-5">
            <stop stop-color="#FFFFFF" stop-opacity="0.3" offset="0%"></stop>
            <stop stop-color="#FFFFFF" stop-opacity="0" offset="100%"></stop>
        </radialGradient>
        <rect id="path-6" x="0" y="0" width="118" height="83" rx="5"></rect>
        <radialGradient cx="50%" cy="50%" fx="50%" fy="50%" r="63.4030032%" gradientTransform="translate(0.500000,0.500000),scale(0.772969,1.000000),rotate(90.000000),translate(-0.500000,-0.500000)" id="radialGradient-8">
            <stop stop-color="#000000" stop-opacity="0.141225962" offset="0%"></stop>
            <stop stop-color="#000000" stop-opacity="0" offset="100%"></stop>
        </radialGradient>
        <linearGradient x1="50%" y1="74.3612753%" x2="50%" y2="5.68517736%" id="linearGradient-9">
            <stop stop-color="#FFFFFF" stop-opacity="0.14720826" offset="0%"></stop>
            <stop stop-color="#FFFFFF" stop-opacity="0" offset="100%"></stop>
        </linearGradient>
        <rect id="path-10" x="0" y="0" width="118" height="83" rx="5"></rect>
        <rect id="path-12" x="0" y="0" width="118" height="83" rx="5"></rect>
        <rect id="path-14" x="0" y="0" width="118" height="83" rx="5"></rect>
    </defs>
    <g id="Publish" stroke="none" stroke-width="1" fill="none" fill-rule="evenodd">
        <g id="WP-App-Server" transform="translate(16.000000, 45.000000)">
            <g id="Group">
                <polygon id="bottom" fill-opacity="0.75" fill="#03E3FF" points="-7.67441666e-15 108.293878 26.1438849 132 79 132 52.8561151 108.293878"></polygon>
                <polygon id="back" fill-opacity="0.75" fill="#03E3FF" points="2.42063563e-14 0 52.8561151 0 52.8561151 108.293878 2.42063563e-14 108.293878"></polygon>
                <polygon id="left" fill-opacity="0.75" fill="#03E3FF" points="-2.17691572e-15 108.293878 26.1438849 132 26.1438849 23.7061224 -2.17691572e-15 0"></polygon>
                <polygon id="right" fill-opacity="0.75" fill="#03E3FF" points="52.8561151 0 52.8561151 108.293878 79 132 79 23.7061224"></polygon>
                <polygon id="top" fill-opacity="0.75" fill="#03E3FF" points="-1.98712574e-15 0 26.1438849 23.7061224 79 23.7061224 52.8561151 0"></polygon>
                <polygon id="front" fill-opacity="0.75" fill="#03E3FF" points="26.1438849 23.7061224 79 23.7061224 79 132 26.1438849 132"></polygon>
                <polygon id="Path" stroke="#000000" stroke-width="0.5" fill="url(#linearGradient-1)" points="79 132 26.1438849 132 0 108.293878 0 0 52.8561151 0 79 23.7061224"></polygon>
                <polygon id="front" fill="url(#linearGradient-2)" points="26.1438849 23.7061224 79 23.7061224 79 132 26.1438849 132"></polygon>
                <polygon id="top" fill="url(#linearGradient-3)" points="-1.98712574e-15 0 26.1438849 23.7061224 79 23.7061224 52.8561151 0"></polygon>
            </g>
        </g>
        <g id="Realtime-Server" transform="translate(378.000000, 71.000000)">
            <g id="Group">
                <circle id="Oval" stroke="#292929" fill="#FF00FF" cx="46.5" cy="46.5" r="46.5"></circle>
                <circle id="Oval" fill="url(#radialGradient-4)" cx="46.5" cy="46.5" r="46.5"></circle>
                <circle id="Oval" fill="url(#radialGradient-5)" cx="46.5" cy="46.5" r="46.5"></circle>
            </g>
        </g>
        <text id="Realtime-Service" font-family="AvenirNext-Regular, Avenir Next" font-size="16" font-weight="normal" letter-spacing="-0.4" fill="#393939">
            <tspan x="361.064" y="13">Realtime Service</tspan>
        </text>
        <text id="App-Server" font-family="AvenirNext-Regular, Avenir Next" font-size="16" font-weight="normal" letter-spacing="-0.4" fill="#393939">
            <tspan x="16.412" y="13">App Server</tspan>
        </text>
        <g id="Group" transform="translate(241.000000, 311.000000)">
            <g id="Browser" transform="translate(0.000000, 0.000000)">
                <g id="Group-2">
                    <g id="Group">
                        <mask id="mask-7" fill="white">
                            <use xlink:href="#path-6"></use>
                        </mask>
                        <use id="Rectangle" fill="#D8D8D8" xlink:href="#path-6"></use>
                        <rect id="Rectangle" fill="#B3B3B3" mask="url(#mask-7)" x="-9.67213115" y="-7.72093023" width="137.344262" height="99.0852713"></rect>
                        <rect id="Rectangle" stroke="#979797" fill="#FFFDFD" mask="url(#mask-7)" x="0.5" y="16.5852713" width="136.344262" height="82"></rect>
                        <rect id="Rectangle" fill="url(#radialGradient-8)" mask="url(#mask-7)" x="-9.67213115" y="16.0852713" width="137.344262" height="106.162791"></rect>
                        <rect id="Rectangle" fill="url(#linearGradient-9)" mask="url(#mask-7)" x="-3.22404372" y="-3.86046512" width="121.224044" height="19.9457364"></rect>
                    </g>
                    <rect id="Rectangle" stroke="#373737" x="0.5" y="0.5" width="117" height="82" rx="5"></rect>
                </g>
            </g>
            <g id="Browser" transform="translate(268.000000, 0.000000)">
                <g id="Group-2">
                    <g id="Group">
                        <mask id="mask-11" fill="white">
                            <use xlink:href="#path-10"></use>
                        </mask>
                        <use id="Rectangle" fill="#D8D8D8" xlink:href="#path-10"></use>
                        <rect id="Rectangle" fill="#B3B3B3" mask="url(#mask-11)" x="-9.67213115" y="-7.72093023" width="137.344262" height="99.0852713"></rect>
                        <rect id="Rectangle" stroke="#979797" fill="#FFFDFD" mask="url(#mask-11)" x="0.5" y="16.5852713" width="136.344262" height="82"></rect>
                        <rect id="Rectangle" fill="url(#radialGradient-8)" mask="url(#mask-11)" x="-9.67213115" y="16.0852713" width="137.344262" height="106.162791"></rect>
                        <rect id="Rectangle" fill="url(#linearGradient-9)" mask="url(#mask-11)" x="-3.22404372" y="-3.86046512" width="121.224044" height="19.9457364"></rect>
                    </g>
                    <rect id="Rectangle" stroke="#373737" x="0.5" y="0.5" width="117" height="82" rx="5"></rect>
                </g>
            </g>
            <g id="Browser" transform="translate(134.000000, 0.000000)">
                <g id="Group-2">
                    <g id="Group">
                        <mask id="mask-13" fill="white">
                            <use xlink:href="#path-12"></use>
                        </mask>
                        <use id="Rectangle" fill="#D8D8D8" xlink:href="#path-12"></use>
                        <rect id="Rectangle" fill="#B3B3B3" mask="url(#mask-13)" x="-9.67213115" y="-7.72093023" width="137.344262" height="99.0852713"></rect>
                        <rect id="Rectangle" stroke="#979797" fill="#FFFDFD" mask="url(#mask-13)" x="0.5" y="16.5852713" width="136.344262" height="82"></rect>
                        <rect id="Rectangle" fill="url(#radialGradient-8)" mask="url(#mask-13)" x="-9.67213115" y="16.0852713" width="137.344262" height="106.162791"></rect>
                        <rect id="Rectangle" fill="url(#linearGradient-9)" mask="url(#mask-13)" x="-3.22404372" y="-3.86046512" width="121.224044" height="19.9457364"></rect>
                    </g>
                    <rect id="Rectangle" stroke="#373737" x="0.5" y="0.5" width="117" height="82" rx="5"></rect>
                </g>
            </g>
        </g>
        <path id="Line" d="M54.5,268.070889 L54.5,239 C54.5,238.447715 54.9477153,238 55.5,238 C56.0522847,238 56.5,238.447715 56.5,239 L56.5,268.070889 C59.8922941,268.556119 62.5,271.473528 62.5,275 C62.5,278.865993 59.3659932,282 55.5,282 C51.6340068,282 48.5,278.865993 48.5,275 C48.5,271.473528 51.1077059,268.556119 54.5,268.070889 Z M56.5,209.222222 L56.5,226 C56.5,226.552285 56.0522847,227 55.5,227 C54.9477153,227 54.5,226.552285 54.5,226 L54.5,209.222222 L49.3351154,209.222222 C48.8738939,209.222222 48.5,208.848328 48.5,208.387107 C48.5,208.257459 48.5301853,208.129592 48.5881655,208.013632 L54.7529586,195.684046 C54.9592232,195.271517 55.4608544,195.104306 55.8733835,195.310571 C56.0350012,195.391379 56.1660496,195.522428 56.2468584,195.684046 L62.4116516,208.013632 C62.6179161,208.426161 62.4507057,208.927792 62.0381766,209.134057 C61.9222163,209.192037 61.7943493,209.222222 61.6647017,209.222222 L56.5,209.222222 Z" fill="#606060" fill-rule="nonzero"></path>
        <path id="Line" d="M334.070889,112 L305,112 C304.447715,112 304,111.552285 304,111 C304,110.447715 304.447715,110 305,110 L334.070889,110 C334.556119,106.607706 337.473528,104 341,104 C344.865993,104 348,107.134007 348,111 C348,114.865993 344.865993,118 341,118 C337.473528,118 334.556119,115.392294 334.070889,112 Z M156.684046,110.253142 L169.013632,104.088348 C169.426161,103.882084 169.927792,104.049294 170.134057,104.461823 C170.192037,104.577784 170.222222,104.705651 170.222222,104.835298 L170.222222,117.164885 C170.222222,117.626106 169.848328,118 169.387107,118 C169.257459,118 169.129592,117.969815 169.013632,117.911835 L156.684046,111.747041 C156.271517,111.540777 156.104306,111.039146 156.310571,110.626617 C156.391379,110.464999 156.522428,110.33395 156.684046,110.253142 Z M292,110 C292.552285,110 293,110.447715 293,111 C293,111.552285 292.552285,112 292,112 L262,112 C261.447715,112 261,111.552285 261,111 C261,110.447715 261.447715,110 262,110 L292,110 Z M249,110 C249.552285,110 250,110.447715 250,111 C250,111.552285 249.552285,112 249,112 L219,112 C218.447715,112 218,111.552285 218,111 C218,110.447715 218.447715,110 219,110 L249,110 Z M206,110 C206.552285,110 207,110.447715 207,111 C207,111.552285 206.552285,112 206,112 L176,112 C175.447715,112 175,111.552285 175,111 C175,110.447715 175.447715,110 176,110 L206,110 Z" fill="#606060" fill-rule="nonzero"></path>
        <path id="Line" d="M552.149589,286.125924 L534.540879,263.215667 C534.20432,262.777778 534.286464,262.149964 534.724353,261.813405 C535.162242,261.476846 535.790055,261.55899 536.126614,261.996879 L553.735324,284.907135 L557.830248,281.759797 C557.933042,281.680791 558.052818,281.626802 558.180092,281.602107 C558.632869,281.514255 559.071136,281.810085 559.158988,282.262862 L561.784701,295.795379 C561.819119,295.972765 561.795075,296.156529 561.716178,296.319088 C561.514793,296.734022 561.015169,296.907137 560.600236,296.705753 L548.198795,290.686812 C548.082159,290.630204 547.980305,290.547217 547.901298,290.444424 C547.620233,290.078736 547.688832,289.554439 548.05452,289.273373 L552.149589,286.125924 Z M473.015427,179.884473 L475.796604,183.502995 C476.133163,183.940883 476.051019,184.568697 475.613131,184.905256 C475.175242,185.241815 474.547428,185.159671 474.210869,184.721783 L471.429692,181.103261 C468.444356,182.785782 464.598938,182.061783 462.449927,179.265758 C460.094014,176.200538 460.669021,171.805841 463.734242,169.449927 C466.799462,167.094014 471.194159,167.669021 473.550073,170.734242 C475.699084,173.530267 475.40937,177.432506 473.015427,179.884473 Z M528.204492,251.689601 C528.541051,252.12749 528.458907,252.755304 528.021018,253.091863 C527.58313,253.428422 526.955316,253.346278 526.618757,252.908389 L508.336936,229.122364 C508.000377,228.684475 508.08252,228.056661 508.520409,227.720102 C508.958298,227.383543 509.586112,227.465687 509.922671,227.903576 L528.204492,251.689601 Z M502.000548,217.596298 C502.337107,218.034186 502.254963,218.662 501.817075,218.998559 C501.379186,219.335118 500.751372,219.252975 500.414813,218.815086 L482.132992,195.02906 C481.796433,194.591172 481.878577,193.963358 482.316465,193.626799 C482.754354,193.29024 483.382168,193.372384 483.718727,193.810272 L502.000548,217.596298 Z" fill="#606060" fill-rule="nonzero"></path>
        <path id="Line" d="M433.540979,283.82053 L432.534574,254.886383 C432.515376,254.334432 432.947257,253.871425 433.499208,253.852226 C434.051159,253.833028 434.514167,254.264909 434.533365,254.81686 L435.53977,283.751007 L440.701351,283.571474 C440.83092,283.566967 440.959759,283.592689 441.077665,283.646604 C441.497114,283.838403 441.681661,284.333919 441.489862,284.753369 L435.75739,297.289801 C435.682248,297.454131 435.555834,297.589655 435.397123,297.676033 C434.992014,297.896513 434.484873,297.746841 434.264393,297.341732 L427.67473,285.233895 C427.612754,285.12002 427.578142,284.99328 427.573635,284.863711 C427.557602,284.402768 427.918273,284.016103 428.379216,284.00007 L433.540979,283.82053 Z M432.240263,188.890162 L432.586716,198.850705 C432.605914,199.402656 432.174033,199.865664 431.622082,199.884862 C431.070131,199.90406 430.607123,199.472179 430.587925,198.920228 L430.241471,188.959685 C426.83436,188.59267 424.126816,185.767672 424.004231,182.243331 C423.869843,178.379674 426.893012,175.138619 430.756669,175.004231 C434.620326,174.869843 437.861381,177.893012 437.995769,181.756669 C438.118355,185.28101 435.613639,188.287304 432.240263,188.890162 Z M434.081464,241.824717 C434.100663,242.376668 433.668781,242.839676 433.11683,242.858874 C432.564879,242.878073 432.101871,242.446191 432.082673,241.89424 L431.039826,211.912371 C431.020627,211.36042 431.452509,210.897412 432.00446,210.878214 C432.556411,210.859016 433.019419,211.290897 433.038617,211.842848 L434.081464,241.824717 Z" fill="#606060" fill-rule="nonzero"></path>
        <path id="Line" d="M309.192609,285.860272 L326.652539,262.836188 C326.986253,262.396127 327.613521,262.309915 328.053582,262.643628 C328.493643,262.977341 328.579856,263.604609 328.246142,264.044671 L310.786212,287.068755 L314.901454,290.18948 C315.004758,290.267818 315.088403,290.369132 315.145766,290.485399 C315.349837,290.899018 315.179964,291.399754 314.766345,291.603824 L302.404185,297.703036 C302.242141,297.782985 302.058536,297.808219 301.880931,297.774952 C301.427594,297.690037 301.128929,297.253697 301.213844,296.80036 L303.751771,283.251105 C303.77564,283.123674 303.828851,283.00355 303.907189,282.900247 C304.185878,282.532745 304.709719,282.460747 305.077221,282.739436 L309.192609,285.860272 Z M389.609947,183.125367 L388.066016,185.161321 C387.732302,185.601383 387.105034,185.687595 386.664973,185.353882 C386.224912,185.020169 386.138699,184.3929 386.472413,183.952839 L388.016344,181.916885 C385.606555,179.48049 385.29155,175.58021 387.422389,172.770312 C389.758382,169.689883 394.149259,169.086397 397.229688,171.422389 C400.310117,173.758382 400.913603,178.149259 398.577611,181.229688 C396.446771,184.039586 392.606128,184.788499 389.609947,183.125367 Z M336.101277,253.686251 C335.767564,254.126312 335.140296,254.212525 334.700235,253.878811 C334.260173,253.545098 334.173961,252.91783 334.507674,252.477769 L352.634909,228.573724 C352.968622,228.133662 353.59589,228.04745 354.035951,228.381163 C354.476013,228.714876 354.562225,229.342144 354.228512,229.782206 L336.101277,253.686251 Z M362.083646,219.423786 C361.749933,219.863848 361.122665,219.95006 360.682604,219.616347 C360.242543,219.282633 360.15633,218.655365 360.490043,218.215304 L378.617278,194.311259 C378.950991,193.871197 379.578259,193.784985 380.01832,194.118698 C380.458382,194.452412 380.544594,195.07968 380.210881,195.519741 L362.083646,219.423786 Z" fill="#606060" fill-rule="nonzero"></path>
        <path id="Line" d="M126.40052,278.228345 L152.311014,265.375108 C152.805769,265.129678 153.405808,265.331796 153.651238,265.826551 C153.896667,266.321307 153.694549,266.921345 153.199794,267.166775 L127.289299,280.020012 L129.58444,284.646725 C129.642055,284.762868 129.671836,284.890829 129.671427,285.020476 C129.669972,285.481695 129.294901,285.854408 128.833682,285.852953 L115.048854,285.809468 C114.868161,285.808898 114.692526,285.749737 114.548314,285.640865 C114.180212,285.362969 114.107084,284.839285 114.38498,284.471182 L122.690665,273.469411 C122.76878,273.365939 122.869914,273.282075 122.986056,273.224461 C123.399234,273.019499 123.900335,273.188291 124.105297,273.601468 L126.40052,278.228345 Z M363.23706,162.97506 L357.449832,165.84589 C356.955077,166.091319 356.355039,165.889201 356.109609,165.394446 C355.864179,164.899691 356.066297,164.299652 356.561053,164.054223 L362.34828,161.183393 C361.275464,157.928831 362.730139,154.296294 365.889271,152.729165 C369.352557,151.011157 373.552826,152.425985 375.270835,155.889271 C376.988843,159.352557 375.574015,163.552826 372.110729,165.270835 C368.951597,166.837963 365.179246,165.79836 363.23706,162.97506 Z M164.845629,261.389707 C164.350874,261.635137 163.750836,261.433018 163.505406,260.938263 C163.259976,260.443508 163.462095,259.84347 163.95685,259.59804 L190.831855,246.266344 C191.32661,246.020915 191.926648,246.223033 192.172078,246.717788 C192.417508,247.212543 192.21539,247.812582 191.720634,248.058011 L164.845629,261.389707 Z M203.36647,242.280943 C202.871715,242.526373 202.271676,242.324255 202.026247,241.8295 C201.780817,241.334745 201.982935,240.734706 202.47769,240.489276 L229.352695,227.157581 C229.847451,226.912151 230.447489,227.114269 230.692919,227.609025 C230.938348,228.10378 230.73623,228.703818 230.241475,228.949248 L203.36647,242.280943 Z M241.887311,223.17218 C241.392555,223.41761 240.792517,223.215491 240.547087,222.720736 C240.301658,222.225981 240.503776,221.625943 240.998531,221.380513 L267.873536,208.048817 C268.368291,207.803388 268.96833,208.005506 269.213759,208.500261 C269.459189,208.995016 269.257071,209.595055 268.762316,209.840484 L241.887311,223.17218 Z M280.408151,204.063416 C279.913396,204.308846 279.313358,204.106728 279.067928,203.611973 C278.822498,203.117218 279.024616,202.517179 279.519371,202.271749 L306.394377,188.940054 C306.889132,188.694624 307.48917,188.896743 307.7346,189.391498 C307.98003,189.886253 307.777911,190.486291 307.283156,190.731721 L280.408151,204.063416 Z M318.928992,184.954653 C318.434237,185.200083 317.834198,184.997965 317.588768,184.503209 C317.343339,184.008454 317.545457,183.408416 318.040212,183.162986 L344.915217,169.831291 C345.409972,169.585861 346.010011,169.787979 346.25544,170.282734 C346.50087,170.777489 346.298752,171.377528 345.803997,171.622958 L318.928992,184.954653 Z" fill="#606060" fill-rule="nonzero"></path>
        <g id="Browser" transform="translate(4.000000, 311.000000)">
            <g id="Group-2">
                <g id="Group">
                    <mask id="mask-15" fill="white">
                        <use xlink:href="#path-14"></use>
                    </mask>
                    <use id="Rectangle" fill="#D8D8D8" xlink:href="#path-14"></use>
                    <rect id="Rectangle" fill="#B3B3B3" mask="url(#mask-15)" x="-9.67213115" y="-7.72093023" width="137.344262" height="99.0852713"></rect>
                    <rect id="Rectangle" stroke="#979797" fill="#FFFDFD" mask="url(#mask-15)" x="0.5" y="16.5852713" width="136.344262" height="82"></rect>
                    <rect id="Rectangle" fill="url(#radialGradient-8)" mask="url(#mask-15)" x="-9.67213115" y="16.0852713" width="137.344262" height="106.162791"></rect>
                    <rect id="Rectangle" fill="url(#linearGradient-9)" mask="url(#mask-15)" x="-3.22404372" y="-3.86046512" width="121.224044" height="19.9457364"></rect>
                </g>
                <rect id="Rectangle" stroke="#373737" x="0.5" y="0.5" width="117" height="82" rx="5"></rect>
            </g>
        </g>
        <text id="PUB-resource/id-{-“e" font-family="Menlo-Regular, Menlo" font-size="12" font-weight="normal" letter-spacing="-0.300000012" fill="#393939">
            <tspan x="175" y="75">PUB resource/id</tspan>
            <tspan x="175" y="89">{ “event”: “updated” }</tspan>
        </text>
        <text id="PATCH-/blog/post/1" font-family="Menlo-Regular, Menlo" font-size="12" font-weight="normal" letter-spacing="-0.300000012" fill="#393939">
            <tspan x="72" y="217">PATCH /blog/post/1</tspan>
        </text>
    </g>
</svg>