
<svg width="527px" height="392px" viewBox="0 0 527 392" version="1.1" xmlns="http://www.w3.org/2000/svg" xmlns:xlink="http://www.w3.org/1999/xlink">
    <defs>
        <linearGradient x1="50%" y1="0%" x2="50%" y2="100%" id="linearGradient-1">
            <stop stop-color="#000000" stop-opacity="0" offset="0%"></stop>
            <stop stop-color="#000000" stop-opacity="0.5" offset="100%"></stop>
        </linearGradient>
        <linearGradient x1="50%" y1="0%" x2="50%" y2="76.4938767%" id="linearGradient-2">
            <stop stop-color="#FFFFFF" stop-opacity="0.25" offset="0%"></stop>
            <stop stop-color="#FFFFFF" stop-opacity="0" offset="100%"></stop>
        </linearGradient>
        <linearGradient x1="63.4301933%" y1="11.7542614%" x2="63.4301933%" y2="77.3171165%" id="linearGradient-3">
            <stop stop-color="#FFFFFF" stop-opacity="0" offset="0%"></stop>
            <stop stop-color="#FFFFFF" stop-opacity="0.35" offset="100%"></stop>
        </linearGradient>
        <radialGradient cx="50%" cy="50%" fx="50%" fy="50%" r="50.7311%" gradientTransform="translate(0.500000,0.500000),rotate(170.261057),scale(1.000000,0.913506),translate(-0.500000,-0.500000)" id="radialGradient-4">
            <stop stop-color="#000000" stop-opacity="0.247268357" offset="0%"></stop>
            <stop stop-color="#000000" stop-opacity="0" offset="100%"></stop>
        </radialGradient>
        <radialGradient cx="69.4979409%" cy="29.3241279%" fx="69.4979409%" fy="29.3241279%" r="50%" id="radialGradient-5">
            <stop stop-color="#FFFFFF" stop-opacity="0.3" offset="0%"></stop>
            <stop stop-color="#FFFFFF" stop-opacity="0" offset="100%"></stop>
        </radialGradient>
        <rect id="path-6" x="0" y="0" width="118" height="83" rx="5"></rect>
        <radialGradient cx="50%" cy="50%" fx="50%" fy="50%" r="63.4030032%" gradientTransform="translate(0.500000,0.500000),scale(0.772969,1.000000),rotate(90.000000),translate(-0.500000,-0.500000)" id="radialGradient-8">
            <stop stop-color="#000000" stop-opacity="0.141225962" offset="0%"></stop>
            <stop stop-color="#000000" stop-opacity="0" offset="100%"></stop>
        </radialGradient>
        <linearGradient x1="50%" y1="74.3612753%" x2="50%" y2="5.68517736%" id="linearGradient-9">
            <stop stop-color="#FFFFFF" stop-opacity="0.14720826" offset="0%"></stop>
            <stop stop-color="#FFFFFF" stop-opacity="0" offset="100%"></stop>
        </linearGradient>
    </defs>
    <g id="Subscribe" stroke="none" stroke-width="1" fill="none" fill-rule="evenodd">
        <g id="WP-App-Server" transform="translate(5.000000, 61.000000)">
            <g id="Group">
                <polygon id="bottom" fill-opacity="0.75" fill="#03E3FF" points="-7.67441666e-15 108.293878 26.1438849 132 79 132 52.8561151 108.293878"></polygon>
                <polygon id="back" fill-opacity="0.75" fill="#03E3FF" points="2.42063563e-14 0 52.8561151 0 52.8561151 108.293878 2.42063563e-14 108.293878"></polygon>
                <polygon id="left" fill-opacity="0.75" fill="#03E3FF" points="-2.17691572e-15 108.293878 26.1438849 132 26.1438849 23.7061224 -2.17691572e-15 0"></polygon>
                <polygon id="right" fill-opacity="0.75" fill="#03E3FF" points="52.8561151 0 52.8561151 108.293878 79 132 79 23.7061224"></polygon>
                <polygon id="top" fill-opacity="0.75" fill="#03E3FF" points="-1.98712574e-15 0 26.1438849 23.7061224 79 23.7061224 52.8561151 0"></polygon>
                <polygon id="front" fill-opacity="0.75" fill="#03E3FF" points="26.1438849 23.7061224 79 23.7061224 79 132 26.1438849 132"></polygon>
                <polygon id="Path" stroke="#000000" stroke-width="0.5" fill="url(#linearGradient-1)" points="79 132 26.1438849 132 0 108.293878 0 0 52.8561151 0 79 23.7061224"></polygon>
                <polygon id="front" fill="url(#linearGradient-2)" points="26.1438849 23.7061224 79 23.7061224 79 132 26.1438849 132"></polygon>
                <polygon id="top" fill="url(#linearGradient-3)" points="-1.98712574e-15 0 26.1438849 23.7061224 79 23.7061224 52.8561151 0"></polygon>
            </g>
        </g>
        <g id="Realtime-Server" transform="translate(429.000000, 87.000000)">
            <g id="Group">
                <circle id="Oval" stroke="#292929" fill="#FF00FF" cx="46.5" cy="46.5" r="46.5"></circle>
                <circle id="Oval" fill="url(#radialGradient-4)" cx="46.5" cy="46.5" r="46.5"></circle>
                <circle id="Oval" fill="url(#radialGradient-5)" cx="46.5" cy="46.5" r="46.5"></circle>
            </g>
        </g>
        <text id="Realtime-Service" font-family="AvenirNext-Regular, Avenir Next" font-size="16" font-weight="normal" letter-spacing="-0.4" fill="#393939">
            <tspan x="408.064" y="18">Realtime Service</tspan>
        </text>
        <text id="App-Server" font-family="AvenirNext-Regular, Avenir Next" font-size="16" font-weight="normal" letter-spacing="-0.4" fill="#393939">
            <tspan x="5.412" y="13">App Server</tspan>
        </text>
        <g id="Browser" transform="translate(215.000000, 303.000000)">
            <g id="Group-2">
                <g id="Group">
                    <mask id="mask-7" fill="white">
                        <use xlink:href="#path-6"></use>
                    </mask>
                    <use id="Rectangle" fill="#D8D8D8" xlink:href="#path-6"></use>
                    <rect id="Rectangle" fill="#B3B3B3" mask="url(#mask-7)" x="-9.67213115" y="-7.72093023" width="137.344262" height="99.0852713"></rect>
                    <rect id="Rectangle" stroke="#979797" fill="#FFFDFD" mask="url(#mask-7)" x="0.5" y="16.5852713" width="136.344262" height="82"></rect>
                    <rect id="Rectangle" fill="url(#radialGradient-8)" mask="url(#mask-7)" x="-9.67213115" y="16.0852713" width="137.344262" height="106.162791"></rect>
                    <rect id="Rectangle" fill="url(#linearGradient-9)" mask="url(#mask-7)" x="-3.22404372" y="-3.86046512" width="121.224044" height="19.9457364"></rect>
                </g>
                <rect id="Rectangle" stroke="#373737" x="0.5" y="0.5" width="117" height="82" rx="5"></rect>
            </g>
        </g>
        <text id="App-Clients" font-family="AvenirNext-Regular, Avenir Next" font-size="16" font-weight="normal" letter-spacing="-0.4" fill="#393939">
            <tspan x="241.352" y="272">App Clients</tspan>
        </text>
        <path id="Line" d="M174.229766,299.961538 L149.572897,284.605067 C149.104099,284.313096 148.960753,283.696371 149.252723,283.227573 C149.544694,282.758775 150.161419,282.615428 150.630217,282.907399 L175.287085,298.26387 C177.492334,295.640897 181.347319,294.969705 184.340708,296.834008 C187.622294,298.877803 188.625722,303.194877 186.581927,306.476463 C184.538132,309.758049 180.221058,310.761477 176.939472,308.717683 C173.946083,306.853379 172.848276,303.097553 174.229766,299.961538 Z M78.7521297,238.141222 L103.09552,253.302456 C103.564318,253.594427 103.707665,254.211152 103.415694,254.67995 C103.123724,255.148748 102.506999,255.292095 102.038201,255.000124 L77.6948103,239.83889 L74.964344,244.223019 C74.7205148,244.614519 74.2054784,244.73423 73.813978,244.490401 C73.7039288,244.421862 73.6113486,244.328641 73.5435693,244.218122 L66.3368765,232.467082 C66.0957517,232.07391 66.21901,231.559711 66.6121818,231.318586 C66.7662159,231.22412 66.9467342,231.182161 67.1266411,231.199009 L80.8514892,232.484279 C81.3107016,232.527282 81.6481058,232.934408 81.6051026,233.393621 C81.5930146,233.522703 81.5510387,233.647199 81.4824993,233.757248 L78.7521297,238.141222 Z M139.595377,276.034823 C140.064175,276.326794 140.207521,276.943519 139.915551,277.412317 C139.62358,277.881115 139.006855,278.024462 138.538057,277.732491 L113.073041,261.8727 C112.604243,261.580729 112.460896,260.964005 112.752867,260.495207 C113.044838,260.026409 113.661563,259.883062 114.130361,260.175032 L139.595377,276.034823 Z" fill="#606060" fill-rule="nonzero"></path>
        <path id="Line" d="M195.88796,283.634623 L171.311473,268.328214 C170.842675,268.036244 170.699328,267.419519 170.991298,266.950721 C171.283269,266.481923 171.899994,266.338576 172.368792,266.630547 L196.94528,281.936956 L199.675649,277.552982 C199.744189,277.442933 199.837409,277.350353 199.947928,277.282573 C200.3411,277.041448 200.855299,277.164707 201.096424,277.557879 L208.303117,289.308919 C208.397583,289.462953 208.439541,289.643471 208.422694,289.823378 C208.379691,290.282591 207.972564,290.619995 207.513352,290.576992 L193.788504,289.291722 C193.659421,289.279634 193.534925,289.237658 193.424876,289.169118 C193.033376,288.925289 192.913665,288.410253 193.157494,288.018752 L195.88796,283.634623 Z M100.410324,221.814308 L124.834095,237.025604 C125.302893,237.317575 125.44624,237.9343 125.15427,238.403098 C124.862299,238.871896 124.245574,239.015243 123.776776,238.723272 L99.3530045,223.511976 C97.147756,226.134948 93.292771,226.806141 90.2993822,224.941837 C87.0177962,222.898042 86.0143681,218.580968 88.0581629,215.299382 C90.1019577,212.017796 94.4190318,211.014368 97.7006178,213.058163 C100.694007,214.922466 101.791814,218.678292 100.410324,221.814308 Z M161.333952,259.757971 C161.80275,260.049941 161.946097,260.666666 161.654126,261.135464 C161.362155,261.604262 160.74543,261.747609 160.276632,261.455639 L134.811616,245.595848 C134.342818,245.303877 134.199471,244.687152 134.491442,244.218354 C134.783413,243.749556 135.400138,243.606209 135.868936,243.89818 L161.333952,259.757971 Z" fill="#606060" fill-rule="nonzero"></path>
        <path id="Line" d="M454.572269,224.647049 L433.179068,244.289227 C432.772249,244.662747 432.13966,244.635754 431.76614,244.228936 C431.392619,243.822117 431.419613,243.189528 431.826431,242.816008 L453.219633,223.17383 C451.282787,220.346864 451.668139,216.452906 454.265772,214.067888 C457.113499,211.453246 461.541624,211.642199 464.156266,214.489926 C466.770908,217.337654 466.581956,221.765779 463.734228,224.380421 C461.136596,226.765438 457.223965,226.817675 454.572269,224.647049 Z M377.063296,293.096805 L390.5763,280.689834 C390.983118,280.316314 391.615708,280.343307 391.989228,280.750125 C392.362748,281.156943 392.335755,281.789533 391.928937,282.163053 L378.415933,294.570024 L381.909039,298.374527 C382.220971,298.714267 382.198429,299.242552 381.858689,299.554484 C381.763189,299.642167 381.648586,299.706412 381.523955,299.742129 L368.272503,303.539809 C367.829129,303.666874 367.366698,303.410455 367.239634,302.967081 C367.189853,302.79338 367.197754,302.608218 367.262151,302.439388 L372.174879,289.559618 C372.339251,289.128681 372.821845,288.912587 373.252782,289.076959 C373.373917,289.123164 373.48263,289.196937 373.570313,289.292437 L377.063296,293.096805 Z M422.250508,251.608146 C422.657326,251.234626 423.289915,251.261619 423.663435,251.668437 C424.036956,252.075255 424.009962,252.707845 423.603144,253.081365 L401.50486,273.370915 C401.098042,273.744435 400.465452,273.717442 400.091932,273.310624 C399.718412,272.903805 399.745405,272.271216 400.152223,271.897696 L422.250508,251.608146 Z" fill="#606060" fill-rule="nonzero"></path>
        <text id="🔑SUB-app.domain.com" font-family="AppleColorEmoji, Apple Color Emoji" font-size="16" font-weight="normal" letter-spacing="-0.400000006">
            <tspan x="159.022656" y="180" fill="#393939">🔑</tspan>
            <tspan x="179.622656" y="180" font-family="Menlo-Regular, Menlo" fill="#393939">SUB </tspan>
            <tspan x="216.553906" y="180" font-family="Menlo-Regular, Menlo" fill="#1EA6B7">app.domain.com</tspan>
            <tspan x="345.813281" y="180" font-family="Menlo-Regular, Menlo" fill="#393939"> ab23</tspan>
        </text>
    </g>
</svg>